<svg width="34" height="34" viewBox="0 0 34 34" xmlns="http://www.w3.org/2000/svg" xmlns:xlink="http://www.w3.org/1999/xlink"><defs><g id="a" fill-rule="evenodd"><path d="M5.5 1A4.501 4.501 0 0 0 1 5.5a4.5 4.5 0 0 0 9 0" fill="#FFF"/><path d="M4 0l3 1.156V2L4 3V0z" stroke="transparent"/></g><path id="b" d="M0 6v1h1V6H0zm1-1v1h1V5H1zm1-1v1h1V4H2zm1-1v1h1V3H3zm1-1v1h1V2H4zm1-1v1h1V1H5zm1-1v1h1V0H6zm1 6v1H6V6h1zM6 5v1H5V5h1zM5 4v1H4V4h1zM3 2v1H2V2h1zM2 1v1H1V1h1zM1 0v1H0V0h1z" fill-rule="evenodd"/></defs><use xlink:href="#a" transform="translate(3 3)" fill="#858585" stroke="#858585"/><use xlink:href="#a" transform="translate(3 20)" fill="#0af" stroke="#0af"/><use xlink:href="#b" transform="translate(22 5)" fill="#858585"/><use xlink:href="#b" transform="translate(22 22)" fill="#ff6b6b"/></svg>